<?xml version="1.0" encoding="UTF-8" standalone="no"?>
<svg
   xmlns:osb="http://www.openswatchbook.org/uri/2009/osb"
   xmlns:dc="http://purl.org/dc/elements/1.1/"
   xmlns:cc="http://creativecommons.org/ns#"
   xmlns:rdf="http://www.w3.org/1999/02/22-rdf-syntax-ns#"
   xmlns:svg="http://www.w3.org/2000/svg"
   xmlns="http://www.w3.org/2000/svg"
   xmlns:xlink="http://www.w3.org/1999/xlink"
   xmlns:sodipodi="http://sodipodi.sourceforge.net/DTD/sodipodi-0.dtd"
   xmlns:inkscape="http://www.inkscape.org/namespaces/inkscape"
   version="1.1"
   x="0px"
   y="0px"
   viewBox="0 0 290 60.000001"
   enable-background="new 0 0 100 100"
   xml:space="preserve"
   id="svg3381"
   inkscape:version="0.91 r13725"
   sodipodi:docname="bangarang.svg"
   inkscape:export-filename="/home/eliot/Pictures/bangarang/bangarangpng"
   inkscape:export-xdpi="85.905861"
   inkscape:export-ydpi="85.905861"
   width="290"
   height="60"><metadata
     id="metadata3389"><rdf:RDF><cc:Work
         rdf:about=""><dc:format>image/svg+xml</dc:format><dc:type
           rdf:resource="http://purl.org/dc/dcmitype/StillImage" /><dc:title></dc:title></cc:Work></rdf:RDF></metadata><defs
     id="defs3387"><linearGradient
       id="linearGradient5739"
       osb:paint="solid"><stop
         style="stop-color:#230000;stop-opacity:1;"
         offset="0"
         id="stop5741" /></linearGradient><linearGradient
       inkscape:collect="always"
       id="linearGradient4276"
       osb:paint="gradient"><stop
         style="stop-color:#000000;stop-opacity:1;"
         offset="0"
         id="stop4278" /><stop
         style="stop-color:#000000;stop-opacity:0;"
         offset="1"
         id="stop4280" /></linearGradient><radialGradient
       inkscape:collect="always"
       xlink:href="#linearGradient5739"
       id="radialGradient5772"
       cx="50.982994"
       cy="66.442581"
       fx="50.982994"
       fy="66.442581"
       r="36.629585"
       gradientTransform="matrix(0.56962977,0,0,0.45053997,0.91451017,51.505385)"
       gradientUnits="userSpaceOnUse" /></defs><sodipodi:namedview
     pagecolor="#ffffff"
     bordercolor="#666666"
     borderopacity="1"
     objecttolerance="10"
     gridtolerance="10"
     guidetolerance="10"
     inkscape:pageopacity="0"
     inkscape:pageshadow="2"
     inkscape:window-width="1920"
     inkscape:window-height="1021"
     id="namedview3385"
     showgrid="true"
     inkscape:zoom="3.1725"
     inkscape:cx="134.81826"
     inkscape:cy="106.1675"
     inkscape:window-x="2560"
     inkscape:window-y="27"
     inkscape:window-maximized="1"
     inkscape:current-layer="layer2"
     inkscape:snap-bbox="true"
     inkscape:snap-global="true"
     inkscape:bbox-paths="true"
     inkscape:bbox-nodes="true"
     inkscape:snap-bbox-edge-midpoints="true"
     inkscape:snap-bbox-midpoints="true"
     inkscape:snap-nodes="false"
     units="px"
     width="467px"><inkscape:grid
       type="xygrid"
       id="grid5838" /></sodipodi:namedview><g
     inkscape:groupmode="layer"
     id="layer1"
     inkscape:label="letter"
     transform="translate(0,-40.000276)"><text
       xml:space="preserve"
       style="font-style:normal;font-weight:normal;font-size:70.32428741px;line-height:125%;font-family:sans-serif;letter-spacing:0px;word-spacing:0px;fill:#f14800;fill-opacity:1;stroke:none;stroke-width:1px;stroke-linecap:butt;stroke-linejoin:miter;stroke-opacity:1"
       x="4.9160686"
       y="96.266953"
       id="text4234"
       sodipodi:linespacing="125%"><tspan
         sodipodi:role="line"
         id="tspan4236"
         x="4.9160686"
         y="96.266953">B</tspan></text>
</g><g
     inkscape:groupmode="layer"
     id="layer2"
     inkscape:label="BIrd"
     transform="translate(0,-40.000276)"><path
       d="m 46.419899,84.879576 c -0.51227,-1.766755 -2.328421,-2.396127 -3.852881,-3.045939 -1.938364,-0.826104 -2.6133,-2.304149 -4.165438,-3.602495 -1.611755,-1.348593 -3.536918,-2.243681 -5.339868,-3.296751 -1.5317,-0.894662 -2.797257,-1.963062 -4.370262,-2.7551 -0.92447,-0.465428 -1.852346,-0.927876 -2.810883,-1.319637 -1.050514,-0.429234 -1.209774,-0.857615 -1.736948,-1.848514 -0.816309,-1.534254 -1.76931,-3.139196 -3.478579,-3.786026 -1.963488,-0.742643 -3.758348,0.204396 -5.723113,0.05365 -2.239423,-0.17246 -4.385165,-0.02001 -5.8512878,1.915369 0.184383,0.08176 0.9913258,-0.235056 1.1940188,-0.26529 1.004952,-0.151594 2.040137,-0.143929 3.047218,-0.02129 0.954704,0.116252 1.946881,0.338107 2.785759,0.827382 -2.241126,-0.748178 -4.837819,-0.607655 -6.9793038,0.129877 1.9085578,0.704318 4.0236398,0.770747 6.0139548,1.106724 0.895513,1.474638 1.63773,2.126579 1.398841,4.008308 -0.121786,0.958536 -0.658328,1.947306 -0.209932,2.897326 0.454782,0.964072 1.352851,1.666686 1.736521,2.669508 0.753714,1.969875 2.135522,3.264815 3.760903,4.528669 1.513814,1.177411 3.355941,3.493483 3.653169,5.43355 -0.08048,-0.0013 -1.241286,2.494494 -1.458883,2.807051 -0.612765,0.88061 -1.675629,2.848781 -2.818123,2.894345 -1.122905,0.04471 -3.40704,-0.370896 -3.783897,1.106724 0.384096,-0.294672 0.720074,-0.572311 1.209774,-0.540375 -0.374301,0.137117 -0.676213,0.442435 -0.694949,0.849525 1.073083,-0.887423 3.038274,-0.514825 4.311923,-0.513547 1.215735,0.0013 2.611595,-1.201258 3.616547,-0.155853 -0.214617,-1.445682 -2.565607,-0.272955 -1.944326,-1.788473 0.382819,-0.933412 1.633046,-1.862992 1.879175,-2.713794 0.300207,-0.204397 1.622825,-1.790176 1.690106,-1.791027 0.351307,-1.547882 -0.734977,-2.571569 -0.926599,-4.015548 0.497365,0.642999 1.387344,0.419013 2.045246,0.726461 0.629372,0.293821 1.10204,1.277055 1.382234,1.865121 0.533561,1.121203 0.751159,2.876461 0.446692,4.070054 -0.436472,1.710972 -1.307288,3.80902 -3.12131,4.323845 -1.121202,0.318518 -3.087671,-0.209081 -3.381917,1.409063 0.952149,-0.749456 2.159368,-0.694954 3.372123,-0.694954 -0.827807,0.463303 -3.163042,0.37558 -3.114498,1.596 0.264864,-0.562515 0.516102,-0.439452 1.022836,-0.373022 0.921064,0.120505 1.789325,-0.525472 2.632462,-0.785651 1.082026,-0.333848 3.19583,-0.919786 3.680847,0.540801 0.07239,-0.817589 -0.353862,-1.127165 -1.003674,-1.472936 -0.634482,-0.337681 -0.824826,-0.296801 -0.492681,-1.02241 0.354287,-0.773728 0.777559,-1.513815 1.191463,-2.256457 0.476075,-0.854208 1.507427,-2.15 1.570875,-3.138344 0.06813,-1.061586 -0.763507,-2.973974 -1.211051,-3.938046 0.683451,0.143929 1.432481,0.266142 2.121043,0.0758 0.31128,-0.08346 0.582105,-0.237186 0.813329,-0.462022 0.686859,0.02981 1.373718,0.06472 2.059725,0.111566 1.974133,0.134988 3.963596,0.354288 5.873429,0.893385 1.445683,0.407517 2.632036,0.898921 4.081551,1.082878 0.691117,0.08772 0.880184,-0.066 1.616013,0.212913 0.833769,0.31639 1.788898,0.555704 2.663972,0.248257 -1.598128,-0.79587 -2.485125,-2.302871 -4.401346,-2.780649 z M 17.662109,67.309961 c -0.818865,0 -0.818865,-1.132699 0,-1.132699 0.819291,0 0.819291,1.132699 0,1.132699 z"
       id="path3383"
       inkscape:connector-curvature="0"
       style="fill:url(#radialGradient5772);fill-opacity:1" /><text
       xml:space="preserve"
       style="font-style:normal;font-weight:normal;font-size:46.03941345px;line-height:125%;font-family:sans-serif;letter-spacing:0px;word-spacing:0px;fill:#000000;fill-opacity:1;stroke:none;stroke-width:1px;stroke-linecap:butt;stroke-linejoin:miter;stroke-opacity:1"
       x="50.420349"
       y="88.104385"
       id="text6270"
       sodipodi:linespacing="125%"><tspan
         sodipodi:role="line"
         id="tspan6272"
         x="50.420349"
         y="88.104385">angarang</tspan></text>
</g></svg>