<?xml version="1.0" encoding="UTF-8" standalone="no"?>
<svg
   xmlns:osb="http://www.openswatchbook.org/uri/2009/osb"
   xmlns:dc="http://purl.org/dc/elements/1.1/"
   xmlns:cc="http://creativecommons.org/ns#"
   xmlns:rdf="http://www.w3.org/1999/02/22-rdf-syntax-ns#"
   xmlns:svg="http://www.w3.org/2000/svg"
   xmlns="http://www.w3.org/2000/svg"
   xmlns:xlink="http://www.w3.org/1999/xlink"
   xmlns:sodipodi="http://sodipodi.sourceforge.net/DTD/sodipodi-0.dtd"
   xmlns:inkscape="http://www.inkscape.org/namespaces/inkscape"
   version="1.1"
   x="0px"
   y="0px"
   viewBox="0 0 100 100"
   enable-background="new 0 0 100 100"
   xml:space="preserve"
   id="svg3381"
   inkscape:version="0.91 r13725"
   sodipodi:docname="icon.svg"
   inkscape:export-filename="/home/eliot/Pictures/bangarang/icon.png"
   inkscape:export-xdpi="90"
   inkscape:export-ydpi="90"><metadata
     id="metadata3389"><rdf:RDF><cc:Work
         rdf:about=""><dc:format>image/svg+xml</dc:format><dc:type
           rdf:resource="http://purl.org/dc/dcmitype/StillImage" /><dc:title></dc:title></cc:Work></rdf:RDF></metadata><defs
     id="defs3387"><linearGradient
       id="linearGradient5739"
       osb:paint="solid"><stop
         style="stop-color:#230000;stop-opacity:1;"
         offset="0"
         id="stop5741" /></linearGradient><linearGradient
       inkscape:collect="always"
       id="linearGradient4276"
       osb:paint="gradient"><stop
         style="stop-color:#000000;stop-opacity:1;"
         offset="0"
         id="stop4278" /><stop
         style="stop-color:#000000;stop-opacity:0;"
         offset="1"
         id="stop4280" /></linearGradient><radialGradient
       inkscape:collect="always"
       xlink:href="#linearGradient5739"
       id="radialGradient5772"
       cx="50.982995"
       cy="66.442581"
       fx="50.982995"
       fy="66.442581"
       r="36.629587"
       gradientTransform="matrix(1,0,0,0.79093474,0.646592,16.419867)"
       gradientUnits="userSpaceOnUse" /></defs><sodipodi:namedview
     pagecolor="#ffffff"
     bordercolor="#666666"
     borderopacity="1"
     objecttolerance="10"
     gridtolerance="10"
     guidetolerance="10"
     inkscape:pageopacity="0"
     inkscape:pageshadow="2"
     inkscape:window-width="2560"
     inkscape:window-height="1581"
     id="namedview3385"
     showgrid="true"
     inkscape:zoom="6.345"
     inkscape:cx="2.9244043"
     inkscape:cy="41.935403"
     inkscape:window-x="0"
     inkscape:window-y="55"
     inkscape:window-maximized="1"
     inkscape:current-layer="layer2"
     inkscape:snap-bbox="true"
     inkscape:snap-global="true"
     inkscape:bbox-paths="true"
     inkscape:bbox-nodes="true"
     inkscape:snap-bbox-edge-midpoints="true"
     inkscape:snap-bbox-midpoints="true"
     inkscape:snap-nodes="false"><inkscape:grid
       type="xygrid"
       id="grid5838" /></sodipodi:namedview><g
     inkscape:groupmode="layer"
     id="layer1"
     inkscape:label="letter"><text
       xml:space="preserve"
       style="font-style:normal;font-weight:normal;font-size:123.45613098px;line-height:125%;font-family:sans-serif;letter-spacing:0px;word-spacing:0px;fill:#f14800;fill-opacity:1;stroke:none;stroke-width:1px;stroke-linecap:butt;stroke-linejoin:miter;stroke-opacity:1"
       x="7.6714334"
       y="95"
       id="text4234"
       sodipodi:linespacing="125%"><tspan
         sodipodi:role="line"
         id="tspan4236"
         x="7.6714334"
         y="95">B</tspan></text>
</g><g
     inkscape:groupmode="layer"
     id="layer2"
     inkscape:label="BIrd"><path
       d="M 80.532496,75.009136 C 79.633193,71.907551 76.444891,70.802671 73.768662,69.66191 70.365813,68.211663 69.180946,65.616916 66.456126,63.337635 63.626648,60.970144 60.246974,59.398794 57.081847,57.550102 54.392908,55.979499 52.171189,54.103896 49.409739,52.713452 47.786807,51.89638 46.157896,51.084541 44.47516,50.396794 42.630954,49.643263 42.351369,48.891228 41.425902,47.151679 39.992849,44.458256 38.319831,41.640739 35.319165,40.505211 31.872211,39.201483 28.721287,40.864034 25.27209,40.599401 21.340724,40.296643 17.573818,40.564271 15,43.961882 c 0.323689,0.14353 1.7403,-0.412648 2.096133,-0.465724 1.764219,-0.266128 3.581513,-0.252672 5.34947,-0.03738 1.676008,0.204082 3.4178,0.593555 4.890473,1.45249 -3.934356,-1.313445 -8.492918,-1.066754 -12.252351,0.228003 3.350523,1.236448 7.063606,1.353066 10.557655,1.942883 1.572098,2.588765 2.875078,3.733265 2.455703,7.036689 -0.213799,1.682736 -1.155713,3.418548 -0.368542,5.086332 0.798383,1.692454 2.374966,2.925911 3.048509,4.686392 1.323164,3.458167 3.748964,5.731468 6.602364,7.950197 2.65754,2.066976 5.891442,6.132901 6.413233,9.53874 -0.141287,-0.0023 -2.179109,4.379149 -2.561107,4.927851 -1.075725,1.545934 -2.94161,5.00111 -4.947288,5.081099 -1.97129,0.07849 -5.981149,-0.651117 -6.642731,1.942883 0.674291,-0.517305 1.264108,-1.004708 2.12379,-0.948642 -0.657096,0.240712 -1.18711,0.776705 -1.220001,1.491363 1.883826,-1.557895 5.33377,-0.903789 7.569693,-0.901546 2.134256,0.0023 4.584725,-2.108839 6.348944,-0.273603 -0.376766,-2.537933 -4.50399,-0.47918 -3.413315,-3.139711 0.672048,-1.63863 2.866855,-3.270532 3.29894,-4.764137 0.527022,-0.358825 2.848913,-3.142702 2.967026,-3.144196 0.616729,-2.717346 -1.290272,-4.514456 -1.626669,-7.049399 0.873138,1.128801 2.435519,0.735589 3.590483,1.275321 1.10488,0.51581 1.93466,2.241903 2.426548,3.27427 0.936681,1.9683 1.318679,5.049701 0.78418,7.145085 -0.766238,3.003657 -2.294979,6.686836 -5.479542,7.590624 -1.9683,0.559167 -5.420487,-0.367047 -5.937044,2.473643 1.671522,-1.315688 3.790827,-1.220002 5.91985,-1.220002 -1.453237,0.813334 -5.552803,0.659339 -5.467582,2.801819 0.464976,-0.987511 0.90603,-0.77147 1.795615,-0.65485 1.616952,0.211552 3.141207,-0.922482 4.621356,-1.379235 1.899525,-0.586079 5.610364,-1.614707 6.461823,0.949389 0.127084,-1.435297 -0.621214,-1.978765 -1.761975,-2.585776 -1.11385,-0.592807 -1.448005,-0.521042 -0.864915,-1.794867 0.621961,-1.358299 1.365026,-2.657541 2.091645,-3.961269 0.835761,-1.499585 2.646328,-3.774381 2.757712,-5.509445 0.119608,-1.863642 -1.340357,-5.22089 -2.126032,-6.913344 1.199817,0.252672 2.514759,0.467219 3.723547,0.133064 0.54646,-0.14652 1.021901,-0.416386 1.427821,-0.811092 1.205798,0.05233 2.411597,0.113627 3.6159,0.195858 3.465643,0.236974 6.958198,0.621962 10.31096,1.56836 2.537933,0.715406 4.620608,1.578079 7.165269,1.90102 1.213274,0.153996 1.545186,-0.11587 2.836953,0.373775 1.463703,0.555431 3.140458,0.975553 4.676673,0.435822 -2.805555,-1.397171 -4.362703,-4.042751 -7.726678,-4.881503 z M 30.047441,44.165216 c -1.437539,0 -1.437539,-1.988483 0,-1.988483 1.438287,0 1.438287,1.988483 0,1.988483 z"
       id="path3383"
       inkscape:connector-curvature="0"
       style="fill:url(#radialGradient5772);fill-opacity:1" /></g></svg>